<svg width="97" height="96" viewBox="0 0 97 96" fill="none" xmlns="http://www.w3.org/2000/svg">
<g filter="url(#filter0_d_126_298)">
<path d="M32.6667 32C32.6667 28.6863 35.353 26 38.6667 26H58.6667C61.9805 26 64.6667 28.6863 64.6667 32V52C64.6667 55.3137 61.9805 58 58.6667 58H32.6667V32Z" fill="#FF4D4F" shape-rendering="crispEdges"/>
<path d="M51.3334 38V37.4666C51.3334 36.7199 51.3334 36.3465 51.1881 36.0613C51.0603 35.8104 50.8563 35.6065 50.6054 35.4786C50.3202 35.3333 49.9468 35.3333 49.2001 35.3333H48.1334C47.3867 35.3333 47.0133 35.3333 46.7281 35.4786C46.4772 35.6065 46.2732 35.8104 46.1454 36.0613C46.0001 36.3465 46.0001 36.7199 46.0001 37.4666V38M47.3334 41.6666V45M50.0001 41.6666V45M42.6667 38H54.6667M53.3334 38V45.4666C53.3334 46.5868 53.3334 47.1468 53.1154 47.5746C52.9237 47.951 52.6177 48.2569 52.2414 48.4487C51.8136 48.6666 51.2535 48.6666 50.1334 48.6666H47.2001C46.08 48.6666 45.5199 48.6666 45.0921 48.4487C44.7158 48.2569 44.4098 47.951 44.2181 47.5746C44.0001 47.1468 44.0001 46.5868 44.0001 45.4666V38" stroke="#FEFEFE" stroke-width="1.6" stroke-linecap="round" stroke-linejoin="round"/>
</g>
<defs>
<filter id="filter0_d_126_298" x="0.666748" y="0" width="96" height="96" filterUnits="userSpaceOnUse" color-interpolation-filters="sRGB">
<feFlood flood-opacity="0" result="BackgroundImageFix"/>
<feColorMatrix in="SourceAlpha" type="matrix" values="0 0 0 0 0 0 0 0 0 0 0 0 0 0 0 0 0 0 127 0" result="hardAlpha"/>
<feOffset dy="6"/>
<feGaussianBlur stdDeviation="16"/>
<feComposite in2="hardAlpha" operator="out"/>
<feColorMatrix type="matrix" values="0 0 0 0 0.0823529 0 0 0 0 0.0823529 0 0 0 0 0.0823529 0 0 0 0.48 0"/>
<feBlend mode="normal" in2="BackgroundImageFix" result="effect1_dropShadow_126_298"/>
<feBlend mode="normal" in="SourceGraphic" in2="effect1_dropShadow_126_298" result="shape"/>
</filter>
</defs>
</svg>
